<?xml version="1.0" encoding="us-ascii" standalone="no"?><svg xmlns="http://www.w3.org/2000/svg" xmlns:xlink="http://www.w3.org/1999/xlink" contentStyleType="text/css" height="421px" preserveAspectRatio="none" style="width:218px;height:421px;background:#FFFFFF;" version="1.1" viewBox="0 0 218 421" width="218px" zoomAndPan="magnify"><defs/><g><ellipse cx="91.5" cy="20" fill="#222222" rx="10" ry="10" style="stroke:#222222;stroke-width:1.0;"/><polygon fill="#F1F1F1" points="41.5,50,141.5,50,153.5,62,141.5,74,41.5,74,29.5,62,41.5,50" style="stroke:#181818;stroke-width:0.5;"/><text fill="#000000" font-family="sans-serif" font-size="11" lengthAdjust="spacing" textLength="100" x="41.5" y="66.1572">!disk_sanity_check</text><ellipse cx="186.5" cy="62" fill="none" rx="11" ry="11" style="stroke:#222222;stroke-width:1.0;"/><ellipse cx="186.5" cy="62" fill="#222222" rx="6" ry="6" style="stroke:#111111;stroke-width:1.0;"/><polygon fill="#F1F1F1" points="32,94,151,94,163,106,151,118,32,118,20,106,32,94" style="stroke:#181818;stroke-width:0.5;"/><text fill="#000000" font-family="sans-serif" font-size="11" lengthAdjust="spacing" textLength="119" x="32" y="110.1572">writing outside of disk</text><ellipse cx="196" cy="106" fill="none" rx="11" ry="11" style="stroke:#222222;stroke-width:1.0;"/><ellipse cx="196" cy="106" fill="#222222" rx="6" ry="6" style="stroke:#111111;stroke-width:1.0;"/><rect fill="#F1F1F1" height="34.1328" rx="12.5" ry="12.5" style="stroke:#181818;stroke-width:0.5;" width="47" x="68" y="138"/><text fill="#000000" font-family="sans-serif" font-size="12" lengthAdjust="spacing" textLength="27" x="78" y="159.6016">seek</text><polygon fill="#F1F1F1" points="68.5,192.1328,114.5,192.1328,126.5,204.1328,114.5,216.1328,68.5,216.1328,56.5,204.1328,68.5,192.1328" style="stroke:#181818;stroke-width:0.5;"/><text fill="#000000" font-family="sans-serif" font-size="11" lengthAdjust="spacing" textLength="46" x="68.5" y="208.29">seek&#160;&lt; 0</text><ellipse cx="159.5" cy="204.1328" fill="none" rx="11" ry="11" style="stroke:#222222;stroke-width:1.0;"/><ellipse cx="159.5" cy="204.1328" fill="#222222" rx="6" ry="6" style="stroke:#111111;stroke-width:1.0;"/><rect fill="#F1F1F1" height="34.1328" rx="12.5" ry="12.5" style="stroke:#181818;stroke-width:0.5;" width="48" x="67.5" y="236.1328"/><text fill="#000000" font-family="sans-serif" font-size="12" lengthAdjust="spacing" textLength="28" x="77.5" y="257.7344">write</text><polygon fill="#F1F1F1" points="37.5,290.2656,145.5,290.2656,157.5,302.2656,145.5,314.2656,37.5,314.2656,25.5,302.2656,37.5,290.2656" style="stroke:#181818;stroke-width:0.5;"/><text fill="#000000" font-family="sans-serif" font-size="11" lengthAdjust="spacing" textLength="108" x="37.5" y="306.4229">write&#160;!= BLOCK_SIZE</text><ellipse cx="190.5" cy="302.2656" fill="none" rx="11" ry="11" style="stroke:#222222;stroke-width:1.0;"/><ellipse cx="190.5" cy="302.2656" fill="#222222" rx="6" ry="6" style="stroke:#111111;stroke-width:1.0;"/><rect fill="#F1F1F1" height="34.1328" rx="12.5" ry="12.5" style="stroke:#181818;stroke-width:0.5;" width="143" x="20" y="334.2656"/><text fill="#000000" font-family="sans-serif" font-size="12" lengthAdjust="spacing" textLength="123" x="30" y="355.8672">increment disk writes</text><ellipse cx="91.5" cy="399.3984" fill="none" rx="11" ry="11" style="stroke:#222222;stroke-width:1.0;"/><ellipse cx="91.5" cy="399.3984" fill="#222222" rx="6" ry="6" style="stroke:#111111;stroke-width:1.0;"/><line style="stroke:#181818;stroke-width:1.0;" x1="91.5" x2="91.5" y1="74" y2="94"/><polygon fill="#181818" points="87.5,84,91.5,94,95.5,84,91.5,88" style="stroke:#181818;stroke-width:1.0;"/><line style="stroke:#181818;stroke-width:1.0;" x1="153.5" x2="175.5" y1="62" y2="62"/><polygon fill="#181818" points="165.5,58,175.5,62,165.5,66,169.5,62" style="stroke:#181818;stroke-width:1.0;"/><line style="stroke:#181818;stroke-width:1.0;" x1="91.5" x2="91.5" y1="30" y2="50"/><polygon fill="#181818" points="87.5,40,91.5,50,95.5,40,91.5,44" style="stroke:#181818;stroke-width:1.0;"/><line style="stroke:#181818;stroke-width:1.0;" x1="91.5" x2="91.5" y1="118" y2="138"/><polygon fill="#181818" points="87.5,128,91.5,138,95.5,128,91.5,132" style="stroke:#181818;stroke-width:1.0;"/><line style="stroke:#181818;stroke-width:1.0;" x1="163" x2="185" y1="106" y2="106"/><polygon fill="#181818" points="175,102,185,106,175,110,179,106" style="stroke:#181818;stroke-width:1.0;"/><line style="stroke:#181818;stroke-width:1.0;" x1="91.5" x2="91.5" y1="216.1328" y2="236.1328"/><polygon fill="#181818" points="87.5,226.1328,91.5,236.1328,95.5,226.1328,91.5,230.1328" style="stroke:#181818;stroke-width:1.0;"/><line style="stroke:#181818;stroke-width:1.0;" x1="126.5" x2="148.5" y1="204.1328" y2="204.1328"/><polygon fill="#181818" points="138.5,200.1328,148.5,204.1328,138.5,208.1328,142.5,204.1328" style="stroke:#181818;stroke-width:1.0;"/><line style="stroke:#181818;stroke-width:1.0;" x1="91.5" x2="91.5" y1="172.1328" y2="192.1328"/><polygon fill="#181818" points="87.5,182.1328,91.5,192.1328,95.5,182.1328,91.5,186.1328" style="stroke:#181818;stroke-width:1.0;"/><line style="stroke:#181818;stroke-width:1.0;" x1="91.5" x2="91.5" y1="314.2656" y2="334.2656"/><polygon fill="#181818" points="87.5,324.2656,91.5,334.2656,95.5,324.2656,91.5,328.2656" style="stroke:#181818;stroke-width:1.0;"/><line style="stroke:#181818;stroke-width:1.0;" x1="157.5" x2="179.5" y1="302.2656" y2="302.2656"/><polygon fill="#181818" points="169.5,298.2656,179.5,302.2656,169.5,306.2656,173.5,302.2656" style="stroke:#181818;stroke-width:1.0;"/><line style="stroke:#181818;stroke-width:1.0;" x1="91.5" x2="91.5" y1="270.2656" y2="290.2656"/><polygon fill="#181818" points="87.5,280.2656,91.5,290.2656,95.5,280.2656,91.5,284.2656" style="stroke:#181818;stroke-width:1.0;"/><line style="stroke:#181818;stroke-width:1.0;" x1="91.5" x2="91.5" y1="368.3984" y2="388.3984"/><polygon fill="#181818" points="87.5,378.3984,91.5,388.3984,95.5,378.3984,91.5,382.3984" style="stroke:#181818;stroke-width:1.0;"/><!--SRC=[Aov9B2hXuifCKz1GJCaipeulJipBBAcCJyv8JSxML2Z9ICtZuYmkoI_WIirBoKo3g2mloYp9p4jNo2yjASvCILN8JrC0wSMctAeuDJNR6g8Dn3oqm4R10Aj2aA6frWWBKWyjKBHLSFBnT_QE3_QCSiMgAJClkIWrDpMl1Em01R2-Og0XO4K0]--></g></svg>