<?xml version="1.0" encoding="us-ascii" standalone="no"?><svg xmlns="http://www.w3.org/2000/svg" xmlns:xlink="http://www.w3.org/1999/xlink" contentStyleType="text/css" height="377px" preserveAspectRatio="none" style="width:212px;height:377px;background:#FFFFFF;" version="1.1" viewBox="0 0 212 377" width="212px" zoomAndPan="magnify"><defs/><g><ellipse cx="85" cy="20" fill="#222222" rx="10" ry="10" style="stroke:#222222;stroke-width:1.0;"/><polygon fill="#F1F1F1" points="35,50,135,50,147,62,135,74,35,74,23,62,35,50" style="stroke:#181818;stroke-width:0.5;"/><text fill="#000000" font-family="sans-serif" font-size="11" lengthAdjust="spacing" textLength="100" x="35" y="66.1572">!disk_sanity_check</text><text fill="#000000" font-family="sans-serif" font-size="11" lengthAdjust="spacing" textLength="14" x="147" y="59.6797">no</text><ellipse cx="183" cy="62" fill="none" rx="11" ry="11" style="stroke:#222222;stroke-width:1.0;"/><ellipse cx="183" cy="62" fill="#222222" rx="6" ry="6" style="stroke:#111111;stroke-width:1.0;"/><rect fill="#F1F1F1" height="34.1328" rx="12.5" ry="12.5" style="stroke:#181818;stroke-width:0.5;" width="47" x="61.5" y="94"/><text fill="#000000" font-family="sans-serif" font-size="12" lengthAdjust="spacing" textLength="27" x="71.5" y="115.6016">seek</text><polygon fill="#F1F1F1" points="62,148.1328,108,148.1328,120,160.1328,108,172.1328,62,172.1328,50,160.1328,62,148.1328" style="stroke:#181818;stroke-width:0.5;"/><text fill="#000000" font-family="sans-serif" font-size="11" lengthAdjust="spacing" textLength="46" x="62" y="164.29">seek &lt; 0</text><text fill="#000000" font-family="sans-serif" font-size="11" lengthAdjust="spacing" textLength="18" x="120" y="157.8125">yes</text><ellipse cx="160" cy="160.1328" fill="none" rx="11" ry="11" style="stroke:#222222;stroke-width:1.0;"/><ellipse cx="160" cy="160.1328" fill="#222222" rx="6" ry="6" style="stroke:#111111;stroke-width:1.0;"/><rect fill="#F1F1F1" height="34.1328" rx="12.5" ry="12.5" style="stroke:#181818;stroke-width:0.5;" width="47" x="61.5" y="192.1328"/><text fill="#000000" font-family="sans-serif" font-size="12" lengthAdjust="spacing" textLength="27" x="71.5" y="213.7344">read</text><polygon fill="#F1F1F1" points="32,246.2656,138,246.2656,150,258.2656,138,270.2656,32,270.2656,20,258.2656,32,246.2656" style="stroke:#181818;stroke-width:0.5;"/><text fill="#000000" font-family="sans-serif" font-size="11" lengthAdjust="spacing" textLength="106" x="32" y="262.4229">read != BLOCK_SIZE</text><text fill="#000000" font-family="sans-serif" font-size="11" lengthAdjust="spacing" textLength="18" x="150" y="255.9453">yes</text><ellipse cx="190" cy="258.2656" fill="none" rx="11" ry="11" style="stroke:#222222;stroke-width:1.0;"/><ellipse cx="190" cy="258.2656" fill="#222222" rx="6" ry="6" style="stroke:#111111;stroke-width:1.0;"/><rect fill="#F1F1F1" height="34.1328" rx="12.5" ry="12.5" style="stroke:#181818;stroke-width:0.5;" width="142" x="14" y="290.2656"/><text fill="#000000" font-family="sans-serif" font-size="12" lengthAdjust="spacing" textLength="122" x="24" y="311.8672">increment disk reads</text><ellipse cx="85" cy="355.3984" fill="none" rx="11" ry="11" style="stroke:#222222;stroke-width:1.0;"/><ellipse cx="85" cy="355.3984" fill="#222222" rx="6" ry="6" style="stroke:#111111;stroke-width:1.0;"/><line style="stroke:#181818;stroke-width:1.0;" x1="85" x2="85" y1="74" y2="94"/><polygon fill="#181818" points="81,84,85,94,89,84,85,88" style="stroke:#181818;stroke-width:1.0;"/><line style="stroke:#181818;stroke-width:1.0;" x1="147" x2="172" y1="62" y2="62"/><polygon fill="#181818" points="162,58,172,62,162,66,166,62" style="stroke:#181818;stroke-width:1.0;"/><line style="stroke:#181818;stroke-width:1.0;" x1="85" x2="85" y1="30" y2="50"/><polygon fill="#181818" points="81,40,85,50,89,40,85,44" style="stroke:#181818;stroke-width:1.0;"/><line style="stroke:#181818;stroke-width:1.0;" x1="85" x2="85" y1="172.1328" y2="192.1328"/><polygon fill="#181818" points="81,182.1328,85,192.1328,89,182.1328,85,186.1328" style="stroke:#181818;stroke-width:1.0;"/><line style="stroke:#181818;stroke-width:1.0;" x1="120" x2="149" y1="160.1328" y2="160.1328"/><polygon fill="#181818" points="139,156.1328,149,160.1328,139,164.1328,143,160.1328" style="stroke:#181818;stroke-width:1.0;"/><line style="stroke:#181818;stroke-width:1.0;" x1="85" x2="85" y1="128.1328" y2="148.1328"/><polygon fill="#181818" points="81,138.1328,85,148.1328,89,138.1328,85,142.1328" style="stroke:#181818;stroke-width:1.0;"/><line style="stroke:#181818;stroke-width:1.0;" x1="85" x2="85" y1="270.2656" y2="290.2656"/><polygon fill="#181818" points="81,280.2656,85,290.2656,89,280.2656,85,284.2656" style="stroke:#181818;stroke-width:1.0;"/><line style="stroke:#181818;stroke-width:1.0;" x1="150" x2="179" y1="258.2656" y2="258.2656"/><polygon fill="#181818" points="169,254.2656,179,258.2656,169,262.2656,173,258.2656" style="stroke:#181818;stroke-width:1.0;"/><line style="stroke:#181818;stroke-width:1.0;" x1="85" x2="85" y1="226.2656" y2="246.2656"/><polygon fill="#181818" points="81,236.2656,85,246.2656,89,236.2656,85,240.2656" style="stroke:#181818;stroke-width:1.0;"/><line style="stroke:#181818;stroke-width:1.0;" x1="85" x2="85" y1="324.3984" y2="344.3984"/><polygon fill="#181818" points="81,334.3984,85,344.3984,89,334.3984,85,338.3984" style="stroke:#181818;stroke-width:1.0;"/><!--SRC=[Aov9B2hXuifCKz1GJCaipeulJipBBAcCJyv8JSxML2Z9ICrJqCZBr-JYB2x9B-1ApKl9JEFYiYfEJSssXcW3CHLi50nWYYjJYz5L5wKcfa1LWvWAYhOAJZx-pjxnmPvHhdZqPUOb5wNcfkQLA82SfW3IMmmq1wm60000]--></g></svg>