<?xml version="1.0" encoding="us-ascii" standalone="no"?><svg xmlns="http://www.w3.org/2000/svg" xmlns:xlink="http://www.w3.org/1999/xlink" contentStyleType="text/css" height="181px" preserveAspectRatio="none" style="width:190px;height:181px;background:#FFFFFF;" version="1.1" viewBox="0 0 190 181" width="190px" zoomAndPan="magnify"><defs/><g><ellipse cx="74" cy="20" fill="#222222" rx="10" ry="10" style="stroke:#222222;stroke-width:1.0;"/><polygon fill="#F1F1F1" points="32,50,116,50,128,62,116,74,32,74,20,62,32,50" style="stroke:#181818;stroke-width:0.5;"/><text fill="#000000" font-family="sans-serif" font-size="11" lengthAdjust="spacing" textLength="84" x="32" y="66.1572">close(fd) == -1</text><text fill="#000000" font-family="sans-serif" font-size="11" lengthAdjust="spacing" textLength="18" x="128" y="59.6797">yes</text><ellipse cx="168" cy="62" fill="none" rx="11" ry="11" style="stroke:#222222;stroke-width:1.0;"/><ellipse cx="168" cy="62" fill="#222222" rx="6" ry="6" style="stroke:#111111;stroke-width:1.0;"/><rect fill="#F1F1F1" height="34.1328" rx="12.5" ry="12.5" style="stroke:#181818;stroke-width:0.5;" width="75" x="36.5" y="94"/><text fill="#000000" font-family="sans-serif" font-size="12" lengthAdjust="spacing" textLength="55" x="46.5" y="115.6016">free(disk)</text><ellipse cx="74" cy="159.1328" fill="none" rx="11" ry="11" style="stroke:#222222;stroke-width:1.0;"/><ellipse cx="74" cy="159.1328" fill="#222222" rx="6" ry="6" style="stroke:#111111;stroke-width:1.0;"/><line style="stroke:#181818;stroke-width:1.0;" x1="74" x2="74" y1="74" y2="94"/><polygon fill="#181818" points="70,84,74,94,78,84,74,88" style="stroke:#181818;stroke-width:1.0;"/><line style="stroke:#181818;stroke-width:1.0;" x1="128" x2="157" y1="62" y2="62"/><polygon fill="#181818" points="147,58,157,62,147,66,151,62" style="stroke:#181818;stroke-width:1.0;"/><line style="stroke:#181818;stroke-width:1.0;" x1="74" x2="74" y1="30" y2="50"/><polygon fill="#181818" points="70,40,74,50,78,40,74,44" style="stroke:#181818;stroke-width:1.0;"/><line style="stroke:#181818;stroke-width:1.0;" x1="74" x2="74" y1="128.1328" y2="148.1328"/><polygon fill="#181818" points="70,138.1328,74,148.1328,78,138.1328,74,142.1328" style="stroke:#181818;stroke-width:1.0;"/><!--SRC=[7San3e0m20NGsNyAHXWSN3KzZB4GYQOrXSNRc_ZM5xcF1Do8Zxk7ibMXKcXUXFBKHlng2AR8_a1RTGDM6wfSFIxPW7y-]--></g></svg>