<?xml version="1.0" encoding="us-ascii" standalone="no"?><svg xmlns="http://www.w3.org/2000/svg" xmlns:xlink="http://www.w3.org/1999/xlink" contentStyleType="text/css" height="770px" preserveAspectRatio="none" style="width:246px;height:770px;background:#FFFFFF;" version="1.1" viewBox="0 0 246 770" width="246px" zoomAndPan="magnify"><defs/><g><ellipse cx="110.5" cy="20" fill="#222222" rx="10" ry="10" style="stroke:#222222;stroke-width:1.0;"/><rect fill="#F1F1F1" height="34.1328" rx="12.5" ry="12.5" style="stroke:#181818;stroke-width:0.5;" width="174" x="23.5" y="98.4775"/><text fill="#000000" font-family="sans-serif" font-size="12" lengthAdjust="spacing" textLength="154" x="33.5" y="120.0791">Error: disk is already open</text><ellipse cx="110.5" cy="172.0439" fill="none" rx="11" ry="11" style="stroke:#222222;stroke-width:1.0;"/><ellipse cx="110.5" cy="172.0439" fill="#222222" rx="6" ry="6" style="stroke:#111111;stroke-width:1.0;"/><polygon fill="#F1F1F1" points="78.5,50,142.5,50,154.5,62,142.5,74,78.5,74,66.5,62,78.5,50" style="stroke:#181818;stroke-width:0.5;"/><text fill="#000000" font-family="sans-serif" font-size="11" lengthAdjust="spacing" textLength="18" x="114.5" y="84.6348">yes</text><text fill="#000000" font-family="sans-serif" font-size="11" lengthAdjust="spacing" textLength="64" x="78.5" y="66.1572">disk is open</text><rect fill="#F1F1F1" height="34.1328" rx="12.5" ry="12.5" style="stroke:#181818;stroke-width:0.5;" width="79" x="71" y="225.0439"/><text fill="#000000" font-family="sans-serif" font-size="12" lengthAdjust="spacing" textLength="59" x="81" y="246.6455">Open disk</text><rect fill="#F1F1F1" height="34.1328" rx="12.5" ry="12.5" style="stroke:#181818;stroke-width:0.5;" width="127" x="47" y="327.6543"/><text fill="#000000" font-family="sans-serif" font-size="12" lengthAdjust="spacing" textLength="107" x="57" y="349.2559">Error opening disk</text><ellipse cx="110.5" cy="401.2207" fill="none" rx="11" ry="11" style="stroke:#222222;stroke-width:1.0;"/><ellipse cx="110.5" cy="401.2207" fill="#222222" rx="6" ry="6" style="stroke:#111111;stroke-width:1.0;"/><polygon fill="#F1F1F1" points="94,279.1768,127,279.1768,139,291.1768,127,303.1768,94,303.1768,82,291.1768,94,279.1768" style="stroke:#181818;stroke-width:0.5;"/><text fill="#000000" font-family="sans-serif" font-size="11" lengthAdjust="spacing" textLength="18" x="114.5" y="313.8115">yes</text><text fill="#000000" font-family="sans-serif" font-size="11" lengthAdjust="spacing" textLength="33" x="94" y="295.334">fd &lt; 0</text><rect fill="#F1F1F1" height="34.1328" rx="12.5" ry="12.5" style="stroke:#181818;stroke-width:0.5;" width="110" x="55.5" y="454.2207"/><text fill="#000000" font-family="sans-serif" font-size="12" lengthAdjust="spacing" textLength="90" x="65.5" y="475.8223">Check disk size</text><rect fill="#F1F1F1" height="34.1328" rx="12.5" ry="12.5" style="stroke:#181818;stroke-width:0.5;" width="199" x="11" y="556.8311"/><text fill="#000000" font-family="sans-serif" font-size="12" lengthAdjust="spacing" textLength="179" x="21" y="578.4326">Error: invalid number of blocks</text><ellipse cx="110.5" cy="630.3975" fill="none" rx="11" ry="11" style="stroke:#222222;stroke-width:1.0;"/><ellipse cx="110.5" cy="630.3975" fill="#222222" rx="6" ry="6" style="stroke:#111111;stroke-width:1.0;"/><polygon fill="#F1F1F1" points="38.5,508.3535,182.5,508.3535,194.5,520.3535,182.5,532.3535,38.5,532.3535,26.5,520.3535,38.5,508.3535" style="stroke:#181818;stroke-width:0.5;"/><text fill="#000000" font-family="sans-serif" font-size="11" lengthAdjust="spacing" textLength="18" x="114.5" y="542.9883">yes</text><text fill="#000000" font-family="sans-serif" font-size="11" lengthAdjust="spacing" textLength="144" x="38.5" y="524.5107">nblocks % BLOCK_SIZE != 0</text><rect fill="#F1F1F1" height="34.1328" rx="12.5" ry="12.5" style="stroke:#181818;stroke-width:0.5;" width="141" x="40" y="683.3975"/><text fill="#000000" font-family="sans-serif" font-size="12" lengthAdjust="spacing" textLength="121" x="50" y="704.999">Create disk structure</text><ellipse cx="110.5" cy="748.5303" fill="none" rx="11" ry="11" style="stroke:#222222;stroke-width:1.0;"/><ellipse cx="110.5" cy="748.5303" fill="#222222" rx="6" ry="6" style="stroke:#111111;stroke-width:1.0;"/><line style="stroke:#181818;stroke-width:1.0;" x1="110.5" x2="110.5" y1="132.6104" y2="161.0439"/><polygon fill="#181818" points="106.5,151.0439,110.5,161.0439,114.5,151.0439,110.5,155.0439" style="stroke:#181818;stroke-width:1.0;"/><line style="stroke:#181818;stroke-width:1.0;" x1="110.5" x2="110.5" y1="74" y2="98.4775"/><polygon fill="#181818" points="106.5,88.4775,110.5,98.4775,114.5,88.4775,110.5,92.4775" style="stroke:#181818;stroke-width:1.0;"/><line style="stroke:#181818;stroke-width:1.0;" x1="154.5" x2="207.5" y1="62" y2="62"/><polygon fill="#181818" points="203.5,131.0439,207.5,141.0439,211.5,131.0439,207.5,135.0439" style="stroke:#181818;stroke-width:1.0;"/><line style="stroke:#181818;stroke-width:1.0;" x1="207.5" x2="207.5" y1="62" y2="205.0439"/><line style="stroke:#181818;stroke-width:1.0;" x1="207.5" x2="110.5" y1="205.0439" y2="205.0439"/><line style="stroke:#181818;stroke-width:1.0;" x1="110.5" x2="110.5" y1="205.0439" y2="225.0439"/><polygon fill="#181818" points="106.5,215.0439,110.5,225.0439,114.5,215.0439,110.5,219.0439" style="stroke:#181818;stroke-width:1.0;"/><line style="stroke:#181818;stroke-width:1.0;" x1="110.5" x2="110.5" y1="30" y2="50"/><polygon fill="#181818" points="106.5,40,110.5,50,114.5,40,110.5,44" style="stroke:#181818;stroke-width:1.0;"/><line style="stroke:#181818;stroke-width:1.0;" x1="110.5" x2="110.5" y1="361.7871" y2="390.2207"/><polygon fill="#181818" points="106.5,380.2207,110.5,390.2207,114.5,380.2207,110.5,384.2207" style="stroke:#181818;stroke-width:1.0;"/><line style="stroke:#181818;stroke-width:1.0;" x1="110.5" x2="110.5" y1="303.1768" y2="327.6543"/><polygon fill="#181818" points="106.5,317.6543,110.5,327.6543,114.5,317.6543,110.5,321.6543" style="stroke:#181818;stroke-width:1.0;"/><line style="stroke:#181818;stroke-width:1.0;" x1="139" x2="184" y1="291.1768" y2="291.1768"/><polygon fill="#181818" points="180,360.2207,184,370.2207,188,360.2207,184,364.2207" style="stroke:#181818;stroke-width:1.0;"/><line style="stroke:#181818;stroke-width:1.0;" x1="184" x2="184" y1="291.1768" y2="434.2207"/><line style="stroke:#181818;stroke-width:1.0;" x1="184" x2="110.5" y1="434.2207" y2="434.2207"/><line style="stroke:#181818;stroke-width:1.0;" x1="110.5" x2="110.5" y1="434.2207" y2="454.2207"/><polygon fill="#181818" points="106.5,444.2207,110.5,454.2207,114.5,444.2207,110.5,448.2207" style="stroke:#181818;stroke-width:1.0;"/><line style="stroke:#181818;stroke-width:1.0;" x1="110.5" x2="110.5" y1="259.1768" y2="279.1768"/><polygon fill="#181818" points="106.5,269.1768,110.5,279.1768,114.5,269.1768,110.5,273.1768" style="stroke:#181818;stroke-width:1.0;"/><line style="stroke:#181818;stroke-width:1.0;" x1="110.5" x2="110.5" y1="590.9639" y2="619.3975"/><polygon fill="#181818" points="106.5,609.3975,110.5,619.3975,114.5,609.3975,110.5,613.3975" style="stroke:#181818;stroke-width:1.0;"/><line style="stroke:#181818;stroke-width:1.0;" x1="110.5" x2="110.5" y1="532.3535" y2="556.8311"/><polygon fill="#181818" points="106.5,546.8311,110.5,556.8311,114.5,546.8311,110.5,550.8311" style="stroke:#181818;stroke-width:1.0;"/><line style="stroke:#181818;stroke-width:1.0;" x1="194.5" x2="220" y1="520.3535" y2="520.3535"/><polygon fill="#181818" points="216,589.3975,220,599.3975,224,589.3975,220,593.3975" style="stroke:#181818;stroke-width:1.0;"/><line style="stroke:#181818;stroke-width:1.0;" x1="220" x2="220" y1="520.3535" y2="663.3975"/><line style="stroke:#181818;stroke-width:1.0;" x1="220" x2="110.5" y1="663.3975" y2="663.3975"/><line style="stroke:#181818;stroke-width:1.0;" x1="110.5" x2="110.5" y1="663.3975" y2="683.3975"/><polygon fill="#181818" points="106.5,673.3975,110.5,683.3975,114.5,673.3975,110.5,677.3975" style="stroke:#181818;stroke-width:1.0;"/><line style="stroke:#181818;stroke-width:1.0;" x1="110.5" x2="110.5" y1="488.3535" y2="508.3535"/><polygon fill="#181818" points="106.5,498.3535,110.5,508.3535,114.5,498.3535,110.5,502.3535" style="stroke:#181818;stroke-width:1.0;"/><line style="stroke:#181818;stroke-width:1.0;" x1="110.5" x2="110.5" y1="717.5303" y2="737.5303"/><polygon fill="#181818" points="106.5,727.5303,110.5,737.5303,114.5,727.5303,110.5,731.5303" style="stroke:#181818;stroke-width:1.0;"/><!--SRC=[ROyn3u8m44Pd-YlEmGGsvwABX85emk3cOWgzoWLiILjCyDUB1GSZw-Lzx-MS5zOpHWfYIQu5Sc1wr0du1ZN48xg4HJotrbWENq9q5eKS0vcoo7dJCzII56Eyd6u1J6Uhah27tPelp4dV5_fNapLOjtFGqGiNcQuwKxSEjd0ybzdfTYckEMmEwtuEf9-Y8mbwU5GuzHJC-x_Oz8x7fURjKFl1Vf81UWC0]--></g></svg>