<svg version="1.1" xmlns="http://www.w3.org/2000/svg" viewBox="0 0 526.2338778914342 357.21256183692327" width="526.2338778914342" height="357.21256183692327">
  <!-- svg-source:excalidraw -->
  
  <defs>
    <style class="style-fonts">
      @font-face {
        font-family: "Virgil";
        src: url("https://excalidraw.com/Virgil.woff2");
      }
      @font-face {
        font-family: "Cascadia";
        src: url("https://excalidraw.com/Cascadia.woff2");
      }
      @font-face {
        font-family: "Assistant";
        src: url("https://excalidraw.com/Assistant-Regular.woff2");
      }
    </style>
    
  </defs>
  <rect x="0" y="0" width="526.2338778914342" height="357.21256183692327" fill="#ffffff"></rect><g stroke-linecap="round" transform="translate(24.98949097391983 30.78269426480034) rotate(0 28.21875 51.2421875)"><path d="M0 0 C16.96 0, 33.92 0, 56.44 0 M0 0 C17.22 0, 34.44 0, 56.44 0 M56.44 0 C56.44 40.1, 56.44 80.19, 56.44 102.48 M56.44 0 C56.44 23.7, 56.44 47.39, 56.44 102.48 M56.44 102.48 C37.75 102.48, 19.06 102.48, 0 102.48 M56.44 102.48 C39.27 102.48, 22.1 102.48, 0 102.48 M0 102.48 C0 77.77, 0 53.06, 0 0 M0 102.48 C0 75.55, 0 48.61, 0 0" stroke="#1e1e1e" stroke-width="1" fill="none"></path></g><g transform="translate(30.97191284891983 70.52488176480034) rotate(0 22.236328125 11.5)"><text x="22.236328125" y="0" font-family="Helvetica, Segoe UI Emoji" font-size="20px" fill="#1e1e1e" text-anchor="middle" style="white-space: pre;" direction="ltr" dominant-baseline="text-before-edge">Shell</text></g><g stroke-linecap="round" transform="translate(173.43510152218516 67.40539530030844) rotate(0 34.88532365343167 57.309688012047815)"><path d="M0 0 C25.01 0, 50.03 0, 69.77 0 M0 0 C19.34 0, 38.68 0, 69.77 0 M69.77 0 C69.77 39.45, 69.77 78.9, 69.77 114.62 M69.77 0 C69.77 22.96, 69.77 45.92, 69.77 114.62 M69.77 114.62 C43.91 114.62, 18.04 114.62, 0 114.62 M69.77 114.62 C51.37 114.62, 32.97 114.62, 0 114.62 M0 114.62 C0 76.39, 0 38.16, 0 0 M0 114.62 C0 75.67, 0 36.73, 0 0" stroke="#1e1e1e" stroke-width="1" fill="none"></path></g><g transform="translate(179.41417517561683 113.21508331235623) rotate(0 28.90625 11.5)"><text x="28.90625" y="0" font-family="Helvetica, Segoe UI Emoji" font-size="20px" fill="#1e1e1e" text-anchor="middle" style="white-space: pre;" direction="ltr" dominant-baseline="text-before-edge">Noyau</text></g><g stroke-linecap="round" transform="translate(309.1523443412833 18.456038624267478) rotate(0 28.21875 51.2421875)"><path d="M0 0 C17.85 0, 35.71 0, 56.44 0 M0 0 C20.83 0, 41.65 0, 56.44 0 M56.44 0 C56.44 36.85, 56.44 73.71, 56.44 102.48 M56.44 0 C56.44 38.78, 56.44 77.55, 56.44 102.48 M56.44 102.48 C36.14 102.48, 15.83 102.48, 0 102.48 M56.44 102.48 C34.44 102.48, 12.45 102.48, 0 102.48 M0 102.48 C0 68.43, 0 34.37, 0 0 M0 102.48 C0 73.65, 0 44.81, 0 0" stroke="#1e1e1e" stroke-width="1" fill="none"></path></g><g transform="translate(316.8144537162833 58.19822612426748) rotate(0 20.556640625 11.5)"><text x="20.556640625" y="0" font-family="Helvetica, Segoe UI Emoji" font-size="20px" fill="#1e1e1e" text-anchor="middle" style="white-space: pre;" direction="ltr" dominant-baseline="text-before-edge">SGF</text></g><g stroke-linecap="round" transform="translate(10 238.42763727673986) rotate(0 32.11203998061811 54.392462280091706)"><path d="M0 0 C24.63 0, 49.27 0, 64.22 0 M0 0 C23.59 0, 47.19 0, 64.22 0 M64.22 0 C64.22 27.06, 64.22 54.11, 64.22 108.78 M64.22 0 C64.22 32.38, 64.22 64.76, 64.22 108.78 M64.22 108.78 C42.8 108.78, 21.37 108.78, 0 108.78 M64.22 108.78 C50.7 108.78, 37.17 108.78, 0 108.78 M0 108.78 C0 84.06, 0 59.34, 0 0 M0 108.78 C0 82.88, 0 56.98, 0 0" stroke="#1e1e1e" stroke-width="1" fill="none"></path></g><g transform="translate(15.988993105618079 281.3200995568315) rotate(0 26.123046875 11.5)"><text x="26.123046875" y="0" font-family="Helvetica, Segoe UI Emoji" font-size="20px" fill="#1e1e1e" text-anchor="middle" style="white-space: pre;" direction="ltr" dominant-baseline="text-before-edge">Écran</text></g><g stroke-linecap="round" transform="translate(467.05915785807076 10) rotate(0 24.241213636362772 6.916073222612113)"><path d="M48.48 6.92 C48.48 7.32, 48.36 7.72, 48.11 8.12 C47.87 8.51, 47.5 8.91, 47.02 9.28 C46.54 9.66, 45.94 10.03, 45.23 10.37 C44.53 10.72, 43.71 11.05, 42.81 11.36 C41.91 11.67, 40.9 11.96, 39.82 12.21 C38.75 12.47, 37.58 12.71, 36.36 12.91 C35.15 13.11, 33.85 13.28, 32.53 13.42 C31.21 13.55, 29.83 13.66, 28.45 13.73 C27.07 13.8, 25.64 13.83, 24.24 13.83 C22.84 13.83, 21.41 13.8, 20.03 13.73 C18.65 13.66, 17.27 13.55, 15.95 13.42 C14.63 13.28, 13.34 13.11, 12.12 12.91 C10.91 12.71, 9.73 12.47, 8.66 12.21 C7.58 11.96, 6.57 11.67, 5.67 11.36 C4.77 11.05, 3.95 10.72, 3.25 10.37 C2.55 10.03, 1.94 9.66, 1.46 9.28 C0.98 8.91, 0.61 8.51, 0.37 8.12 C0.12 7.72, 0 7.32, 0 6.92 C0 6.52, 0.12 6.11, 0.37 5.72 C0.61 5.32, 0.98 4.93, 1.46 4.55 C1.94 4.17, 2.55 3.8, 3.25 3.46 C3.95 3.11, 4.77 2.78, 5.67 2.47 C6.57 2.16, 7.58 1.88, 8.66 1.62 C9.73 1.36, 10.91 1.13, 12.12 0.93 C13.34 0.73, 14.63 0.55, 15.95 0.42 C17.27 0.28, 18.65 0.17, 20.03 0.11 C21.41 0.04, 22.84 0, 24.24 0 C25.64 0, 27.07 0.04, 28.45 0.11 C29.83 0.17, 31.21 0.28, 32.53 0.42 C33.85 0.55, 35.15 0.73, 36.36 0.93 C37.58 1.13, 38.75 1.36, 39.82 1.62 C40.9 1.88, 41.91 2.16, 42.81 2.47 C43.71 2.78, 44.53 3.11, 45.23 3.46 C45.94 3.8, 46.54 4.17, 47.02 4.55 C47.5 4.93, 47.87 5.32, 48.11 5.72 C48.36 6.11, 48.42 6.72, 48.48 6.92 C48.54 7.12, 48.54 6.72, 48.48 6.92" stroke="#1e1e1e" stroke-width="1" fill="none"></path></g><g stroke-linecap="round"><g transform="translate(466.8617516055323 17.844156784893244) rotate(0 -0.8293804360118884 58.92576638270748)"><path d="M0 0 C-0.56 39.58, -1.11 79.17, -1.66 117.85 M0 0 C-0.48 33.85, -0.95 67.71, -1.66 117.85" stroke="#1e1e1e" stroke-width="1" fill="none"></path></g></g><mask></mask><g stroke-linecap="round"><g transform="translate(516.2338778914342 18.16494194526814) rotate(0 -0.8293804360118884 58.92576638270748)"><path d="M0 0 C-0.42 29.92, -0.84 59.83, -1.66 117.85 M0 0 C-0.56 39.77, -1.12 79.54, -1.66 117.85" stroke="#1e1e1e" stroke-width="1" fill="none"></path></g></g><mask></mask><g stroke-linecap="round"><g transform="translate(465.16152844636395 135.81332352585076) rotate(0 24.564721014022723 2.3294123882002964)"><path d="M0 0 C1.8 0.55, 6.69 2.51, 10.83 3.28 C14.96 4.06, 20.3 4.64, 24.81 4.66 C29.32 4.68, 33.85 4.12, 37.9 3.4 C41.96 2.68, 47.26 0.86, 49.13 0.36 M0 0 C1.8 0.55, 6.69 2.51, 10.83 3.28 C14.96 4.06, 20.3 4.64, 24.81 4.66 C29.32 4.68, 33.85 4.12, 37.9 3.4 C41.96 2.68, 47.26 0.86, 49.13 0.36" stroke="#1e1e1e" stroke-width="1" fill="none"></path></g></g><mask></mask><g transform="translate(470.91301308104255 68.26016730063265) rotate(0 21.123046875 11.5)"><text x="0" y="0" font-family="Helvetica, Segoe UI Emoji" font-size="20px" fill="#1e1e1e" text-anchor="start" style="white-space: pre;" direction="ltr" dominant-baseline="text-before-edge">Data</text></g><g stroke-linecap="round"><g transform="translate(81.5025486657114 106.73359157234546) rotate(0 45.73275060369514 20.674850414604407)"><path d="M0 0 C15.24 6.89, 76.22 34.46, 91.47 41.35 M0 0 C15.24 6.89, 76.22 34.46, 91.47 41.35" stroke="#1e1e1e" stroke-width="1" fill="none"></path></g><g transform="translate(81.5025486657114 106.73359157234546) rotate(0 45.73275060369514 20.674850414604407)"><path d="M61.55 39.09 C72.74 39.93, 83.93 40.78, 91.47 41.35 M61.55 39.09 C72.84 39.94, 84.14 40.8, 91.47 41.35" stroke="#1e1e1e" stroke-width="1" fill="none"></path></g><g transform="translate(81.5025486657114 106.73359157234546) rotate(0 45.73275060369514 20.674850414604407)"><path d="M70 20.39 C78.03 28.23, 86.06 36.07, 91.47 41.35 M70 20.39 C78.11 28.3, 86.21 36.21, 91.47 41.35" stroke="#1e1e1e" stroke-width="1" fill="none"></path></g></g><mask></mask><g stroke-linecap="round"><g transform="translate(172.1411175678835 113.43853149487893) rotate(0 -44.82405073844609 -20.01145322944808)"><path d="M0 0 C-14.94 -6.67, -74.71 -33.35, -89.65 -40.02 M0 0 C-14.94 -6.67, -74.71 -33.35, -89.65 -40.02" stroke="#1e1e1e" stroke-width="1" fill="none"></path></g><g transform="translate(172.1411175678835 113.43853149487893) rotate(0 -44.82405073844609 -20.01145322944808)"><path d="M-59.72 -37.9 C-67.86 -38.48, -76 -39.05, -89.65 -40.02 M-59.72 -37.9 C-66.43 -38.38, -73.13 -38.85, -89.65 -40.02" stroke="#1e1e1e" stroke-width="1" fill="none"></path></g><g transform="translate(172.1411175678835 113.43853149487893) rotate(0 -44.82405073844609 -20.01145322944808)"><path d="M-68.09 -19.16 C-73.95 -24.84, -79.82 -30.51, -89.65 -40.02 M-68.09 -19.16 C-72.92 -23.84, -77.75 -28.51, -89.65 -40.02" stroke="#1e1e1e" stroke-width="1" fill="none"></path></g></g><mask></mask><g stroke-linecap="round"><g transform="translate(37.14133317272325 137.2807177725669) rotate(0 -3.0577981883251937 50.21299577972758)"><path d="M0 0 C-1.02 16.74, -5.1 83.69, -6.12 100.43 M0 0 C-1.02 16.74, -5.1 83.69, -6.12 100.43" stroke="#1e1e1e" stroke-width="1" fill="none"></path></g><g transform="translate(37.14133317272325 137.2807177725669) rotate(0 -3.0577981883251937 50.21299577972758)"><path d="M-14.64 71.66 C-12.56 78.68, -10.48 85.69, -6.12 100.43 M-14.64 71.66 C-11.4 82.61, -8.15 93.55, -6.12 100.43" stroke="#1e1e1e" stroke-width="1" fill="none"></path></g><g transform="translate(37.14133317272325 137.2807177725669) rotate(0 -3.0577981883251937 50.21299577972758)"><path d="M5.84 72.91 C2.92 79.62, 0.01 86.33, -6.12 100.43 M5.84 72.91 C1.29 83.38, -3.26 93.85, -6.12 100.43" stroke="#1e1e1e" stroke-width="1" fill="none"></path></g></g><mask></mask><g stroke-linecap="round"><g transform="translate(55.9787276628598 237.59562887311216) rotate(0 3.895529982603989 -50.39195874130465)"><path d="M0 0 C1.3 -16.8, 6.49 -83.99, 7.79 -100.78 M0 0 C1.3 -16.8, 6.49 -83.99, 7.79 -100.78" stroke="#e03131" stroke-width="1" fill="none"></path></g><g transform="translate(55.9787276628598 237.59562887311216) rotate(0 3.895529982603989 -50.39195874130465)"><path d="M15.85 -71.89 C12.8 -82.82, 9.75 -93.76, 7.79 -100.78 M15.85 -71.89 C13.19 -81.41, 10.53 -90.94, 7.79 -100.78" stroke="#e03131" stroke-width="1" fill="none"></path></g><g transform="translate(55.9787276628598 237.59562887311216) rotate(0 3.895529982603989 -50.39195874130465)"><path d="M-4.61 -73.47 C0.08 -83.81, 4.78 -94.15, 7.79 -100.78 M-4.61 -73.47 C-0.52 -82.48, 3.57 -91.48, 7.79 -100.78" stroke="#e03131" stroke-width="1" fill="none"></path></g></g><mask></mask><g stroke-linecap="round"><g transform="translate(244.1397683513145 105.5981024368221) rotate(0 32.396924397901444 -26.421721379040008)"><path d="M0 0 C10.8 -8.81, 53.99 -44.04, 64.79 -52.84 M0 0 C10.8 -8.81, 53.99 -44.04, 64.79 -52.84" stroke="#1e1e1e" stroke-width="1" fill="none"></path></g><g transform="translate(244.1397683513145 105.5981024368221) rotate(0 32.396924397901444 -26.421721379040008)"><path d="M49.43 -27.07 C54.88 -36.21, 60.33 -45.35, 64.79 -52.84 M49.43 -27.07 C54.72 -35.94, 60.01 -44.81, 64.79 -52.84" stroke="#1e1e1e" stroke-width="1" fill="none"></path></g><g transform="translate(244.1397683513145 105.5981024368221) rotate(0 32.396924397901444 -26.421721379040008)"><path d="M36.46 -42.98 C46.51 -46.48, 56.56 -49.98, 64.79 -52.84 M36.46 -42.98 C46.21 -46.37, 55.96 -49.77, 64.79 -52.84" stroke="#1e1e1e" stroke-width="1" fill="none"></path></g></g><mask></mask><g stroke-linecap="round"><g transform="translate(305.40681257672827 96.64995435796936) rotate(0 -30.99299082001255 25.58244680060963)"><path d="M0 0 C-10.33 8.53, -51.65 42.64, -61.99 51.16 M0 0 C-10.33 8.53, -51.65 42.64, -61.99 51.16" stroke="#1e1e1e" stroke-width="1" fill="none"></path></g><g transform="translate(305.40681257672827 96.64995435796936) rotate(0 -30.99299082001255 25.58244680060963)"><path d="M-46.78 25.31 C-52.08 34.32, -57.38 43.34, -61.99 51.16 M-46.78 25.31 C-50.08 30.92, -53.38 36.54, -61.99 51.16" stroke="#1e1e1e" stroke-width="1" fill="none"></path></g><g transform="translate(305.40681257672827 96.64995435796936) rotate(0 -30.99299082001255 25.58244680060963)"><path d="M-33.71 41.13 C-43.57 44.63, -53.43 48.13, -61.99 51.16 M-33.71 41.13 C-39.85 43.31, -45.99 45.49, -61.99 51.16" stroke="#1e1e1e" stroke-width="1" fill="none"></path></g></g><mask></mask><g stroke-linecap="round"><g transform="translate(366.71705475838473 43.713944550797805) rotate(0 49.993920430210835 7.343652561265344)"><path d="M0 0 C16.66 2.45, 83.32 12.24, 99.99 14.69 M0 0 C16.66 2.45, 83.32 12.24, 99.99 14.69" stroke="#1e1e1e" stroke-width="1" fill="none"></path></g><g transform="translate(366.71705475838473 43.713944550797805) rotate(0 49.993920430210835 7.343652561265344)"><path d="M70.61 20.74 C80.4 18.72, 90.19 16.71, 99.99 14.69 M70.61 20.74 C80.71 18.66, 90.81 16.58, 99.99 14.69" stroke="#1e1e1e" stroke-width="1" fill="none"></path></g><g transform="translate(366.71705475838473 43.713944550797805) rotate(0 49.993920430210835 7.343652561265344)"><path d="M73.59 0.44 C82.39 5.19, 91.19 9.94, 99.99 14.69 M73.59 0.44 C82.67 5.34, 91.75 10.24, 99.99 14.69" stroke="#1e1e1e" stroke-width="1" fill="none"></path></g></g><mask></mask><g stroke-linecap="round"><g transform="translate(464.8751536150962 91.96606167393543) rotate(0 -48.12869439101553 -7.249542728022249)"><path d="M0 0 C-16.04 -2.42, -80.21 -12.08, -96.26 -14.5 M0 0 C-16.04 -2.42, -80.21 -12.08, -96.26 -14.5" stroke="#1e1e1e" stroke-width="1" fill="none"></path></g><g transform="translate(464.8751536150962 91.96606167393543) rotate(0 -48.12869439101553 -7.249542728022249)"><path d="M-66.85 -20.45 C-77.11 -18.37, -87.37 -16.3, -96.26 -14.5 M-66.85 -20.45 C-72.75 -19.25, -78.65 -18.06, -96.26 -14.5" stroke="#1e1e1e" stroke-width="1" fill="none"></path></g><g transform="translate(464.8751536150962 91.96606167393543) rotate(0 -48.12869439101553 -7.249542728022249)"><path d="M-69.91 -0.15 C-79.1 -5.16, -88.29 -10.16, -96.26 -14.5 M-69.91 -0.15 C-75.19 -3.03, -80.48 -5.91, -96.26 -14.5" stroke="#1e1e1e" stroke-width="1" fill="none"></path></g></g><mask></mask></svg>